<svg id="light" enable-background="new 0 0 24 24" height="512" viewBox="0 0 24 24" width="512" xmlns="http://www.w3.org/2000/svg"><g><g><path d="m20.5 5c-1.378 0-2.5-1.121-2.5-2.5s1.122-2.5 2.5-2.5 2.5 1.121 2.5 2.5-1.122 2.5-2.5 2.5zm0-4c-.827 0-1.5.673-1.5 1.5s.673 1.5 1.5 1.5 1.5-.673 1.5-1.5-.673-1.5-1.5-1.5z"/></g><g><path d="m23.5 6c-.128 0-.256-.049-.354-.146l-1.5-1.5c-.195-.195-.195-.512 0-.707s.512-.195.707 0l1.5 1.5c.195.195.195.512 0 .707-.097.097-.225.146-.353.146z"/></g></g><g><path d="m14.5 6h-13c-.827 0-1.5-.673-1.5-1.5v-3c0-.827.673-1.5 1.5-1.5h13c.827 0 1.5.673 1.5 1.5v3c0 .827-.673 1.5-1.5 1.5zm-13-5c-.276 0-.5.225-.5.5v3c0 .275.224.5.5.5h13c.276 0 .5-.225.5-.5v-3c0-.275-.224-.5-.5-.5z"/></g><g><path d="m3 14c-1.654 0-3-1.346-3-3s1.346-3 3-3 3 1.346 3 3-1.346 3-3 3zm0-5c-1.103 0-2 .897-2 2s.897 2 2 2 2-.897 2-2-.897-2-2-2z"/></g><g><path d="m5.5 20h-5c-.276 0-.5-.224-.5-.5s.224-.5.5-.5h5c.276 0 .5.224.5.5s-.224.5-.5.5z"/></g><g><path d="m5.5 23h-5c-.276 0-.5-.224-.5-.5s.224-.5.5-.5h5c.276 0 .5.224.5.5s-.224.5-.5.5z"/></g><g><path d="m5.5 17h-5c-.276 0-.5-.224-.5-.5s.224-.5.5-.5h5c.276 0 .5.224.5.5s-.224.5-.5.5z"/></g><g><path d="m22.5 24h-13c-.827 0-1.5-.673-1.5-1.5v-13c0-.827.673-1.5 1.5-1.5h13c.827 0 1.5.673 1.5 1.5v13c0 .827-.673 1.5-1.5 1.5zm-13-15c-.276 0-.5.225-.5.5v13c0 .275.224.5.5.5h13c.276 0 .5-.225.5-.5v-13c0-.275-.224-.5-.5-.5z"/></g><g><path d="m13.5 19c-.091 0-.183-.025-.263-.074-.147-.092-.237-.253-.237-.426v-6c0-.173.09-.334.237-.426.148-.09.331-.099.486-.021l6 3c.17.085.277.258.277.447s-.107.362-.276.447l-6 3c-.071.035-.147.053-.224.053zm.5-5.691v4.383l4.382-2.191z"/></g></svg>